HIERARCHY
ROOT hip
{
  OFFSET 0.0 0.0 0.0
  CHANNELS 6 Xposition Yposition Zposition Zrotation Yrotation Xrotation
  JOINT torso
  {
    OFFSET 0.0 0.0 0.0
    CHANNELS 3 Zrotation Xrotation Yrotation
    JOINT neck
    {
      OFFSET -8.059630999999968 325.56260699999996 64.6221310000002
      CHANNELS 3 Zrotation Xrotation Yrotation
      JOINT head
      {
        OFFSET 34.685424000000125 375.1179809999999 232.79357900000002
        CHANNELS 3 Zrotation Xrotation Yrotation
        End Site
        {
          OFFSET 0.0 0.0 0.0
        }
      }
    }
    JOINT left_collar
    {
      OFFSET -8.059630999999968 325.56260699999996 64.6221310000002
      CHANNELS 3 Zrotation Xrotation Yrotation
      JOINT left_upper_arm
      {
        OFFSET -124.124665 -15.370300999999927 25.582641999999964
        CHANNELS 3 Zrotation Xrotation Yrotation
        JOINT left_forearm
        {
          OFFSET -268.19913399999996 105.06054699999993 114.74548300000004
          CHANNELS 3 Zrotation Xrotation Yrotation
          JOINT left_hand
          {
            OFFSET -235.82003099999991 -10.198180999999977 -38.67455999999993
            CHANNELS 3 Zrotation Xrotation Yrotation
            End Site
            {
              OFFSET 0.0 0.0 0.0
            }
          }
        }
      }
    }
    JOINT right_collar
    {
      OFFSET -8.059630999999968 325.56260699999996 64.6221310000002
      CHANNELS 3 Zrotation Xrotation Yrotation
      JOINT right_upper_arm
      {
        OFFSET 162.73931899999997 -2.8598030000000563 26.244994999999903
        CHANNELS 3 Zrotation Xrotation Yrotation
        JOINT right_forearm
        {
          OFFSET 284.6506340000001 103.07031299999994 145.84521499999994
          CHANNELS 3 Zrotation Xrotation Yrotation
          JOINT right_hand
          {
            OFFSET 226.332337 -12.198241999999937 -49.27258299999994
            CHANNELS 3 Zrotation Xrotation Yrotation
            End Site
            {
              OFFSET 0.0 0.0 0.0
            }
          }
        }
      }
    }
  }
}
MOTION
Frames: 17
Frame Time: 0.01
373.1867764442237 231.1878702260775 794.520686663498 0.05708586194207116 2.87218777756156 -5.999789127317933 0.7518607379111327 -2.888432780817899 -0.2385634735848846 -0.22474312544246583 -2.4962991446001213 0.3702865104170202 0.0 0.0 0.0 -0.18648664618804364 -0.19148126833837775 1.2562036784206996 -2.0102491317394464 1.774912199687665 6.5074538688639 -1.229781156182049 0.1871254346545078 0.44904586527305457 0.0 0.0 0.0 0.07680804748316197 0.05154669640696634 3.7649772621820623 3.6785161263010213 -0.5360828558011438 -3.4168608613756257 0.08822766260127356 0.126807997358197 2.034527560186839 0.0 0.0 0.0
372.9841106061157 231.11730895677977 794.5831301259544 0.06423590470235757 2.8539926473291186 -5.991593978908759 0.7546271277797849 -2.885834781857909 -0.2390995016607438 -0.22845021107892305 -2.5035366567757094 0.37329810532404384 0.0 0.0 0.0 -0.19102503908095322 -0.19263831123909353 1.2584626082558676 -2.0029212233349267 1.7776906855439232 6.507832211082657 -1.2296197870109984 0.18733385752353524 0.44174366682998784 0.0 0.0 0.0 0.0798818393004491 0.05094876259590137 3.765094632210612 3.6524442058331155 -0.5180871650123282 -3.4305392280241955 0.11323866558933389 0.1322660398057948 2.0436430336235616 0.0 0.0 0.0
372.7789630274089 231.04607057574344 794.6457886563262 0.0715466597727321 2.836326578698836 -5.982660853800757 0.7573440271812933 -2.883978124491748 -0.23964724034779417 -0.23199552251614688 -2.5107674729865472 0.37620672533510785 0.0 0.0 0.0 -0.195403849096276 -0.1937141095742863 1.2603098065320633 -1.9956733785710201 1.7803004987786504 6.507858299776356 -1.2282775983326775 0.18731422863177227 0.4353702578410266 0.0 0.0 0.0 0.0828094691303795 0.05036907522845686 3.7646086132313012 3.626741111378212 -0.5002347848747822 -3.4443343978929404 0.13694116332230433 0.13747784505626975 2.0531095815679254 0.0 0.0 0.0
372.5703930369016 230.97386343604776 794.7088622272696 0.07919660725496847 2.8192021424925544 -5.972755969713204 0.7599058210631734 -2.882930334570187 -0.24018531078455688 -0.23528946678287935 -2.5180233216704644 0.3789584141499863 0.0 0.0 0.0 -0.19958233466067118 -0.19465898021863004 1.2614009134894593 -1.9886093960312892 1.7827045515097808 6.507532251324219 -1.2259620828473317 0.18710549830842166 0.429802419531177 0.0 0.0 0.0 0.08550465357255886 0.04981897704178308 3.763193256197404 3.6016548373973443 -0.4827755438364817 -3.457915763961262 0.15896154862287706 0.14237353170696218 2.063009393980624 0.0 0.0 0.0
372.35738589938325 230.90036412696236 794.7725927436393 0.08736956133495453 2.8026076512406255 -5.961666931197581 0.7622100057433725 -2.8827432433363436 -0.24069254685724675 -0.23825099812743517 -2.5253369088925455 0.381504713301209 0.0 0.0 0.0 -0.20353068736961227 -0.19542664686237451 1.2614017275379568 -1.9818219219658788 1.784876500991759 6.506871187794286 -1.22297367097635 0.1867641137164241 0.4248552612855171 0.0 0.0 0.0 0.0878842234744397 0.04930919878808982 3.760521290203258 3.577420754943489 -0.4659706362974847 -3.4709066757306384 0.17896743182787322 0.14689202271336277 2.0734344087139074 0.0 0.0 0.0
372.13890016463233 230.82522784328003 794.8372580649144 0.09624927815432972 2.7865058859027463 -5.9492138429601775 0.7641604205381302 -2.8834495744475617 -0.24114859957605667 -0.24081081368285484 -2.532739821568697 0.3838044994953418 0.0 0.0 0.0 -0.2072315898741212 -0.1959760092368191 1.2600003918297158 -1.9753894620605752 1.7868023266591018 6.5059105392203405 -1.2197129960268849 0.1863654888515768 0.42027488293403403 0.0 0.0 0.0 0.08987060407006438 0.048849534410970515 3.7562744252510245 3.5542542096982306 -0.4500872608808864 -3.482888980255403 0.19668515857580082 0.15098443996670272 2.084484677485171 0.0 0.0 0.0
371.9139147447835 230.7480973879313 794.9031667251675 0.10601434417477879 2.7708323902682834 -5.935259565676968 0.7656701860281838 -2.885059029319781 -0.24153446076782817 -0.2429141448993251 -2.540260660781079 0.38582558699645964 0.0 0.0 0.0 -0.21068115986429392 -0.19627268016358265 1.2569186664859195 -1.9693742608911387 1.7884814172448462 6.5047048912383705 -1.2166864687794952 0.18600519878371907 0.4157307578935315 0.0 0.0 0.0 0.09139407536520062 0.04844855907839046 3.7501539113821285 3.53234264732788 -0.4353921970219877 -3.493409816278427 0.211918131327461 0.15461765382298995 2.096266738939941 0.0 0.0 0.0
371.6814736609701 230.66861010673432 794.9706538029609 0.1168335418712207 2.755493328758095 -5.919718694421036 0.7666642568087557 -2.8875539959407557 -0.24183289067530583 -0.24452302934326145 -2.547923480892184 0.3875460287859082 0.0 0.0 0.0 -0.21388922582887898 -0.196290234158173 1.2519218881883778 -1.9638211416180802 1.789927102002762 6.503328292959755 -1.2145098267096142 0.1857998218713396 0.41080796400116437 0.0 0.0 0.0 0.09239474992609023 0.04811339911807811 3.7418910342213145 3.51183735013478 -0.4221443451574363 -3.5019907052498596 0.2245655296540697 0.15777790737547476 2.10889208954341 0.0 0.0 0.0
371.44072655848515 230.5864021488257 795.0400783318703 0.12886186256885698 2.7403630082946884 -5.902564895450568 0.7670815182521197 -2.8908851214531945 -0.24202874247864756 -0.2456179698801331 -2.555746575130433 0.38895506124338314 0.0 0.0 0.0 -0.216878914916884 -0.19601112966391512 1.2448273171052633 -1.9587573381916743 1.7911665820794143 6.501873942030956 -1.2139093690928218 0.18588735259125108 0.40499942561167357 0.0 0.0 0.0 0.0928242231131132 0.04784955962521475 3.7312572086842746 3.4928449069309444 -0.4105863099482231 -3.5081388760786174 0.23464094835192706 0.16047441895144776 2.1224758432866224 0.0 0.0 0.0
371.19096334264134 230.5011095806367 795.1118225492471 0.14223730528222808 2.725281267178921 -5.883836308272148 0.7668763767685607 -2.89496709100228 -0.24210918426450437 -0.2461989137880814 -2.563741616678271 0.3900536503628161 0.0 0.0 0.0 -0.21968555553986854 -0.19542728319947367 1.2355106748696254 -1.9541933023745441 1.7922402389015308 6.500453172370984 -1.2157206570715668 0.18642710953957037 0.39769836407916603 0.0 0.0 0.0 0.09264686311393348 0.047660813338650215 3.7180733327554183 3.4754185839201512 -0.40093515909310895 -3.511360663314477 0.24229040721430573 0.16274285317605078 2.1371356871233522 0.0 0.0 0.0
370.93164163851264 230.4123660546215 795.1862931492758 0.15707856578223453 2.710051020379386 -5.863638805339745 0.7660198110117672 -2.899675028475109 -0.24206382496886314 -0.2462855131960118 -2.5719131377116438 0.39085461333179533 0.0 0.0 0.0 -0.22235491623639267 -0.19454028920129898 1.2239107830895473 -1.9501244207976338 1.7932003182736134 6.499193683690721 -1.220884545345631 0.18759906828009512 0.3881911842107513 0.0 0.0 0.0 0.09184071966474727 0.04754915236496814 3.7022180838147833 3.459549808302708 -0.3933725376611929 -3.5111767330311476 0.24780913846651764 0.16464854202843413 2.1529912636105926 0.0 0.0 0.0
370.6624062228039 230.31979694253573 795.263924535296 0.1734836802485401 2.694436310828237 -5.842146996662756 0.7644998698883119 -2.9048419669271763 -0.24188475547310803 -0.2459166597276804 -2.5802583080470205 0.39138230731468926 0.0 0.0 0.0 -0.22494082770286705 -0.19336129545141428 1.210032313263126 -1.9465335244466597 1.7941090146376035 6.4982369699582865 -1.2304405161559526 0.18960255713933316 0.37565105385973746 0.0 0.0 0.0 0.09039804404659064 0.047514801840800314 3.6836348778461825 3.4451600103760027 -0.3880343589074675 -3.5071388112865205 0.251656531013075 0.16628933278290967 2.1701641336712156 0.0 0.0 0.0
370.38310009105476 230.22301007724977 795.3451838660618 0.19152964049128712 2.678161243509034 -5.819602960762476 0.7623216265133873 -2.9102578228044154 -0.24156652018795643 -0.24514931715502342 -2.5887669594899507 0.3916718954137339 0.0 0.0 0.0 -0.22750226941421756 -0.19191056000885903 1.1939467445289298 -1.9433940143693613 1.7950360106105774 6.4977349287184625 -1.2455173985131307 0.19265426520257428 0.3591324648796841 0.0 0.0 0.0 0.08832542598327561 0.047556292114268414 3.6623372587041225 3.4320930916758794 -0.38500032908511167 -3.4988475118522198 0.2544686046857135 0.16779793923831185 2.1887784843302716 0.0 0.0 0.0
370.0937673555532 230.12158349061392 795.4305774829218 0.21127294276080327 2.6609101699241466 -5.796312766644266 0.7595066281231637 -2.9156702504677905 -0.2411060388406257 -0.24405670248319916 -2.597421790784984 0.3917682155994611 0.0 0.0 0.0 -0.2301000381926387 -0.19021672880642396 1.1757916839722102 -1.940673374810121 1.7960555604303134 6.4978456700189575 -1.2673216612922975 0.1969855241463657 0.33756709587001754 0.0 0.0 0.0 0.08564356040324057 0.04767058441780856 3.6384125324522842 3.420108796704418 -0.38428359605673895 -3.4859707858557436 0.25706740245430615 0.1693436762241934 2.2089627520909736 0.0 0.0 0.0
369.794648651455 230.01505076924087 795.5206581153891 0.2327509739790844 2.6423294453983375 -5.772640922434539 0.7560919172827792 -2.9207876587773667 -0.24050250239348778 -0.24272588767733683 -2.6061986821941407 0.3917242916604191 0.0 0.0 0.0 -0.23279314250761665 -0.18831588142994807 1.155768734221014 -1.9383368117359203 1.7972432389751787 6.498728596328417 -1.297123552994451 0.20283883781190612 0.3097613266428607 0.0 0.0 0.0 0.0823866597787761 0.047853244169178875 3.6120235105342715 3.408877262993869 -0.385820836284081 -3.4682624556822295 0.2604667249304255 0.17113346534038187 2.230852339544826 0.0 0.0 0.0
369.4861701086578 229.90288485881848 795.6160321109467 0.2559840872850403 2.6220310068678914 -5.749002952338238 0.7521287293416403 -2.9252845500581666 -0.23975726923278756 -0.24125491335195554 -2.615067051459543 0.3915995375925418 0.0 0.0 0.0 -0.23563507958032312 -0.1862503965790706 1.134140104217196 -1.9363507422912436 1.7986725089719582 6.500538890676545 -1.3362414189141916 0.21046364598888512 0.27439577559114775 0.0 0.0 0.0 0.07860153437292086 0.04809865456269048 3.5834082822510203 3.397975007399383 -0.38946310846350723 -3.445580258394823 0.2658736869127453 0.1734120114822935 2.25459361308214 0.0 0.0 0.0
369.1689272042762 229.7844813160454 795.7173658312688 0.2809781846597276 2.599597926606975 -5.725856368987039 0.7476809828064623 -2.928809207680393 -0.23887378579216403 -0.23974952256836626 -2.6239901972201563 0.39145771885024006 0.0 0.0 0.0 -0.23867015774119832 -0.18406769033916617 1.1112241595766967 -1.9346858598445666 1.8004112877533178 6.503421620895012 -1.386024565284925 0.22011132401431904 0.23002723930471256 0.0 0.0 0.0 0.07434637941158949 0.048400259984945085 3.5528780050443944 3.3868825798659237 -0.39496780511562274 -3.417902814954521 0.27468564154786546 0.17646106254033084 2.2803493791533254 0.0 0.0 0.0
